<?xml version="1.0" encoding="UTF-8" standalone="no"?>
<svg
   height="48"
   viewBox="0 96 960 960"
   width="48"
   version="1.1"
   id="svg142"
   sodipodi:docname="tab_light.svg"
   inkscape:version="1.2 (dc2aedaf03, 2022-05-15)"
   xmlns:inkscape="http://www.inkscape.org/namespaces/inkscape"
   xmlns:sodipodi="http://sodipodi.sourceforge.net/DTD/sodipodi-0.dtd"
   xmlns="http://www.w3.org/2000/svg"
   xmlns:svg="http://www.w3.org/2000/svg">
  <defs
     id="defs146" />
  <sodipodi:namedview
     id="namedview144"
     pagecolor="#505050"
     bordercolor="#eeeeee"
     borderopacity="1"
     inkscape:showpageshadow="0"
     inkscape:pageopacity="0"
     inkscape:pagecheckerboard="0"
     inkscape:deskcolor="#505050"
     showgrid="false"
     inkscape:zoom="8.4791667"
     inkscape:cx="3.4201474"
     inkscape:cy="25.710074"
     inkscape:window-width="1920"
     inkscape:window-height="1017"
     inkscape:window-x="-8"
     inkscape:window-y="-8"
     inkscape:window-maximized="1"
     inkscape:current-layer="svg142" />
  <path
     d="M 90.627429,893.29897 H 869.37257 q 11.79816,0 21.63167,-9.83223 9.83223,-9.8335 9.83223,-21.63167 V 468.43093 H 533.29241 V 258.70103 H 90.627429 q -11.798162,0 -21.631668,9.83223 -9.832227,9.8335 -9.832227,21.63167 v 571.67014 q 0,11.79817 9.832227,21.63167 9.833506,9.83223 21.631668,9.83223 z m 0,55.94732 q -35.512084,0 -61.461648,-25.94957 Q 3.2162163,897.34716 3.2162163,861.83507 V 290.16493 q 0,-35.51209 25.9495647,-61.46165 25.949564,-25.94957 61.461648,-25.94957 H 869.37257 q 35.51208,0 61.46165,25.94957 25.94956,25.94956 25.94956,61.46165 v 571.67014 q 0,35.51209 -25.94956,61.46165 -25.94957,25.94957 -61.46165,25.94957 z M 59.163534,893.29897 V 258.70103 Z"
     id="path140"
     style="stroke-width:1.27824;fill:#ffffff" />
</svg>
